<svg width="120" height="194" viewBox="0 0 120 194" fill="none" xmlns="http://www.w3.org/2000/svg">
<g filter="url(#filter0_f_12_335)">
<path d="M74.181 32.2554C66.817 32.2554 57.8004 30.2598 53.5011 37.4254C42.8273 55.215 39.3507 75.1685 34.329 94.9415C28.7248 117.008 31.5077 159.965 62.1177 162.151C94.3977 164.457 87.7523 105.174 87.7523 84.6016C87.7523 73.9454 75.3471 67.61 65.349 71.2457C53.9639 75.3858 58.6711 105.048 58.6711 114.652C58.6711 120.967 57.8741 125.315 65.4567 125.315C71.8686 125.315 76.1198 126.071 76.1198 118.422C76.1198 115.813 77.6611 100.967 75.0427 100.219C67.3572 98.0234 62.6263 101.934 58.6711 107.867" stroke="#80B918" stroke-width="3" stroke-linecap="round"/>
</g>
<path d="M74.181 32.2554C66.817 32.2554 57.8004 30.2598 53.5011 37.4254C42.8273 55.215 39.3507 75.1685 34.329 94.9415C28.7248 117.008 31.5077 159.965 62.1177 162.151C94.3977 164.457 87.7523 105.174 87.7523 84.6016C87.7523 73.9454 75.3471 67.61 65.349 71.2457C53.9639 75.3858 58.6711 105.048 58.6711 114.652C58.6711 120.967 57.8741 125.315 65.4567 125.315C71.8686 125.315 76.1198 126.071 76.1198 118.422C76.1198 115.813 77.6611 100.967 75.0427 100.219C67.3572 98.0234 62.6263 101.934 58.6711 107.867" stroke="#80B918" stroke-width="3" stroke-linecap="round"/>
<defs>
<filter id="filter0_f_12_335" x="0.5" y="0.5" width="119.317" height="193.217" filterUnits="userSpaceOnUse" color-interpolation-filters="sRGB">
<feFlood flood-opacity="0" result="BackgroundImageFix"/>
<feBlend mode="normal" in="SourceGraphic" in2="BackgroundImageFix" result="shape"/>
<feGaussianBlur stdDeviation="15" result="effect1_foregroundBlur_12_335"/>
</filter>
</defs>
</svg>
