<svg width="214" height="178" viewBox="0 0 214 178" fill="none" xmlns="http://www.w3.org/2000/svg">
<g filter="url(#filter0_f_12_289)">
<path d="M55.4306 42.7887C51.1321 65.7136 45.0855 88.0465 39.4897 110.645C37.7647 117.611 35.5042 124.405 34.5352 131.54C34.474 131.991 33.246 143.236 32.5964 142.957C27.6624 140.843 54.9483 49.9319 55.4306 35.4646C55.6468 28.9787 58.8848 32.7521 60.3851 37.4033C66.1714 55.3407 73.1844 72.705 79.7726 90.3957C85.7999 106.58 92.185 122.645 98.083 138.864C98.8753 141.043 104.053 147.558 100.022 145.542" stroke="#8338EC" stroke-width="3" stroke-linecap="round"/>
<path d="M37.9819 116.461H94.2055" stroke="#8338EC" stroke-width="3" stroke-linecap="round"/>
<path d="M111.654 145.542C106.239 139.45 106.549 123.162 107.884 115.815C108.248 113.813 121.664 113.358 122.856 115.384C126.483 121.551 128.556 128.659 132.011 134.879C135.451 141.071 134.509 154.254 140.735 139.726" stroke="#8338EC" stroke-width="3" stroke-linecap="round"/>
<path d="M171.755 93.1961C157.182 93.1961 144.613 90.4659 144.613 109.675C144.613 114.875 143.781 119.292 147.629 123.139C152.561 128.071 160.801 120.339 165.939 120.339C171.677 120.339 176.906 120.422 179.941 126.155C181.389 128.89 183.324 138.672 181.018 141.234C179.445 142.983 165.005 143.604 162.062 143.604C158.461 143.604 145.523 143.604 156.245 143.604" stroke="#8338EC" stroke-width="3" stroke-linecap="round"/>
</g>
<path d="M55.4306 42.7887C51.1321 65.7136 45.0855 88.0465 39.4897 110.645C37.7647 117.611 35.5042 124.405 34.5352 131.54C34.474 131.991 33.246 143.236 32.5964 142.957C27.6624 140.843 54.9483 49.9319 55.4306 35.4646C55.6468 28.9787 58.8848 32.7521 60.3851 37.4033C66.1714 55.3407 73.1844 72.705 79.7726 90.3957C85.7999 106.58 92.185 122.645 98.083 138.864C98.8753 141.043 104.053 147.558 100.022 145.542" stroke="#8338EC" stroke-width="3" stroke-linecap="round"/>
<path d="M37.9819 116.461H94.2055" stroke="#8338EC" stroke-width="3" stroke-linecap="round"/>
<path d="M111.654 145.542C106.239 139.45 106.549 123.162 107.884 115.815C108.248 113.813 121.664 113.358 122.856 115.384C126.483 121.551 128.556 128.659 132.011 134.879C135.451 141.071 134.509 154.254 140.735 139.726" stroke="#8338EC" stroke-width="3" stroke-linecap="round"/>
<path d="M171.755 93.1961C157.182 93.1961 144.613 90.4659 144.613 109.675C144.613 114.875 143.781 119.292 147.629 123.139C152.561 128.071 160.801 120.339 165.939 120.339C171.677 120.339 176.906 120.422 179.941 126.155C181.389 128.89 183.324 138.672 181.018 141.234C179.445 142.983 165.005 143.604 162.062 143.604C158.461 143.604 145.523 143.604 156.245 143.604" stroke="#8338EC" stroke-width="3" stroke-linecap="round"/>
<defs>
<filter id="filter0_f_12_289" x="0.500061" y="0.499878" width="213.086" height="177.303" filterUnits="userSpaceOnUse" color-interpolation-filters="sRGB">
<feFlood flood-opacity="0" result="BackgroundImageFix"/>
<feBlend mode="normal" in="SourceGraphic" in2="BackgroundImageFix" result="shape"/>
<feGaussianBlur stdDeviation="15" result="effect1_foregroundBlur_12_289"/>
</filter>
</defs>
</svg>
