<svg width="210" height="149" viewBox="0 0 210 149" fill="none" xmlns="http://www.w3.org/2000/svg">
<g filter="url(#filter0_f_12_295)">
<path d="M52.4293 61.5967C43.4413 61.5967 33.6884 64.7151 33.0418 76.0296C32.5917 83.9073 29.7092 102.64 36.0576 108.988C48.9762 121.907 65.1582 118.663 76.5559 107.265C82.2135 101.607 88.808 95.8952 92.1736 88.416C93.9335 84.5052 96.573 68.2899 97.0205 79.4763C97.399 88.9389 113.6 90.6779 120.285 90.6779C130.329 90.6779 129.979 77.6581 129.979 70.3211C129.979 62.8503 123.762 60.946 117.27 59.7657C108.148 58.1072 103.075 59.1207 99.39 67.413C95.2297 76.7737 105.175 75.1679 111.023 75.1679C121.816 75.1679 125.576 63.4367 131.918 56.6421C138.277 49.8284 139.673 42.1846 139.673 33.4849C139.673 29.1626 140.768 35.4636 141.612 37.3624C143.42 41.432 147.606 44.0806 149.797 48.0255C155.195 57.7408 158.007 60.7596 149.367 68.49C141.052 75.9296 134.689 65.4742 140.642 65.4742C146.078 65.4742 155.914 69.0232 160.137 66.3359C168.058 61.2958 178.448 54.8058 178.448 44.148" stroke="#EDF67D" stroke-width="3" stroke-linecap="round"/>
</g>
<path d="M52.4293 61.5967C43.4413 61.5967 33.6884 64.7151 33.0418 76.0296C32.5917 83.9073 29.7092 102.64 36.0576 108.988C48.9762 121.907 65.1582 118.663 76.5559 107.265C82.2135 101.607 88.808 95.8952 92.1736 88.416C93.9335 84.5052 96.573 68.2899 97.0205 79.4763C97.399 88.9389 113.6 90.6779 120.285 90.6779C130.329 90.6779 129.979 77.6581 129.979 70.3211C129.979 62.8503 123.762 60.946 117.27 59.7657C108.148 58.1072 103.075 59.1207 99.39 67.413C95.2297 76.7737 105.175 75.1679 111.023 75.1679C121.816 75.1679 125.576 63.4367 131.918 56.6421C138.277 49.8284 139.673 42.1846 139.673 33.4849C139.673 29.1626 140.768 35.4636 141.612 37.3624C143.42 41.432 147.606 44.0806 149.797 48.0255C155.195 57.7408 158.007 60.7596 149.367 68.49C141.052 75.9296 134.689 65.4742 140.642 65.4742C146.078 65.4742 155.914 69.0232 160.137 66.3359C168.058 61.2958 178.448 54.8058 178.448 44.148" stroke="#EDF67D" stroke-width="3" stroke-linecap="round"/>
<defs>
<filter id="filter0_f_12_295" x="0.5" y="0.499756" width="209.448" height="148.34" filterUnits="userSpaceOnUse" color-interpolation-filters="sRGB">
<feFlood flood-opacity="0" result="BackgroundImageFix"/>
<feBlend mode="normal" in="SourceGraphic" in2="BackgroundImageFix" result="shape"/>
<feGaussianBlur stdDeviation="15" result="effect1_foregroundBlur_12_295"/>
</filter>
</defs>
</svg>
