<svg width="154" height="208" viewBox="0 0 154 208" fill="none" xmlns="http://www.w3.org/2000/svg">
<g filter="url(#filter0_f_12_260)">
<path d="M33.9387 65.1672C33.9387 78.0538 36.9989 102.981 49.4487 110.189C61.1073 116.939 65.5087 103.62 70.3441 92.7405C73.0898 86.5628 74.6524 66.1618 74.6524 72.9222C74.6524 77.9317 75.7765 84.6883 73.6831 89.2939C68.9768 99.6476 63.5852 106.861 56.2343 115.682C51.5986 121.245 48.7632 134.808 45.6789 141.748C40.7425 152.855 38.3311 165.124 32 175.676" stroke="#FB5607" stroke-width="3" stroke-linecap="round"/>
<path d="M97.9174 34.1473C101.216 33.735 103.427 31.2788 107.611 32.2085C110.453 32.8401 113.637 44.7081 111.058 47.2877C110.081 48.2647 101.283 47.7185 103.734 47.7185C107.934 47.7185 112.135 47.7185 116.336 47.7185C122.184 47.7185 124.612 60.8841 120.213 64.3056C114 69.1379 103.709 67.106 95.9787 67.106" stroke="#FB5607" stroke-width="3" stroke-linecap="round"/>
</g>
<path d="M35.9387 58.1672C35.9387 71.0538 38.9989 95.9814 51.4487 103.189C63.1073 109.939 67.5087 96.6201 72.3441 85.7405C75.0898 79.5628 76.6524 59.1618 76.6524 65.9222C76.6524 70.9317 77.7765 77.6883 75.6831 82.2939C70.9768 92.6476 65.5852 99.8613 58.2343 108.682C53.5986 114.245 50.7632 127.808 47.6789 134.748C42.7425 145.855 40.3311 158.124 34 168.676" stroke="#FB5607" stroke-width="3" stroke-linecap="round"/>
<path d="M99.9174 27.1473C103.216 26.735 105.427 24.2788 109.611 25.2085C112.453 25.8401 115.637 37.7081 113.058 40.2877C112.081 41.2647 103.283 40.7185 105.734 40.7185C109.934 40.7185 114.135 40.7185 118.336 40.7185C124.184 40.7185 126.612 53.8841 122.213 57.3056C116 62.1379 105.709 60.106 97.9787 60.106" stroke="#FB5607" stroke-width="3" stroke-linecap="round"/>
<defs>
<filter id="filter0_f_12_260" x="0.499786" y="0.5" width="153.47" height="206.676" filterUnits="userSpaceOnUse" color-interpolation-filters="sRGB">
<feFlood flood-opacity="0" result="BackgroundImageFix"/>
<feBlend mode="normal" in="SourceGraphic" in2="BackgroundImageFix" result="shape"/>
<feGaussianBlur stdDeviation="15" result="effect1_foregroundBlur_12_260"/>
</filter>
</defs>
</svg>
