<svg width="294" height="220" viewBox="0 0 294 220" fill="none" xmlns="http://www.w3.org/2000/svg">
<g filter="url(#filter0_f_12_313)">
<path d="M75.2649 53.9387C81.1816 57.4191 87.9483 65.4826 91.7442 71.3874C95.0692 76.5596 101.794 80.4681 106.285 84.9587" stroke="#FE654F" stroke-width="3" stroke-linecap="round"/>
<path d="M108.224 52C96.3842 52 81.8151 85.4821 75.2649 94.6524" stroke="#FE654F" stroke-width="3" stroke-linecap="round"/>
<path d="M52 119.856C77.0167 119.856 102.158 117.917 127.611 117.917" stroke="#FE654F" stroke-width="3" stroke-linecap="round"/>
<path d="M88.8361 143.121C80.7339 143.121 83.0199 152.857 83.0199 158.631C83.0199 168.865 90.7747 168.325 98.9607 168.325C107.315 168.325 104.346 158.563 104.346 151.845C104.346 142.086 92.3879 141.182 84.9586 141.182" stroke="#FE654F" stroke-width="3" stroke-linecap="round"/>
<path d="M164.447 114.04C174.255 108.847 183.676 103.456 193.528 98.53" stroke="#FE654F" stroke-width="3" stroke-linecap="round"/>
<path d="M189.651 88.8362C193.642 88.8362 205.001 86.5733 206.669 91.2058C208.766 97.0302 202.873 99.5771 201.283 104.346" stroke="#FE654F" stroke-width="3" stroke-linecap="round"/>
<path d="M224.548 69.4488C224.548 62.7543 222.182 55.1622 229.503 53.8311C239.499 52.0136 241.997 53.0309 241.997 64.6019C241.997 72.6505 235.051 76.5516 234.242 83.02C233.489 89.0417 232.303 95.4541 232.303 102.407" stroke="#FE654F" stroke-width="3" stroke-linecap="round"/>
<path d="M230.365 119.856C230.365 126.659 234.671 124.917 232.303 123.734" stroke="#FE654F" stroke-width="3" stroke-linecap="round"/>
</g>
<path d="M75.2649 53.9387C81.1816 57.4191 87.9483 65.4826 91.7442 71.3874C95.0692 76.5596 101.794 80.4681 106.285 84.9587" stroke="#FE654F" stroke-width="3" stroke-linecap="round"/>
<path d="M108.224 52C96.3842 52 81.8151 85.4821 75.2649 94.6524" stroke="#FE654F" stroke-width="3" stroke-linecap="round"/>
<path d="M52 119.856C77.0167 119.856 102.158 117.917 127.611 117.917" stroke="#FE654F" stroke-width="3" stroke-linecap="round"/>
<path d="M88.8361 143.121C80.7339 143.121 83.0199 152.857 83.0199 158.631C83.0199 168.865 90.7747 168.325 98.9607 168.325C107.315 168.325 104.346 158.563 104.346 151.845C104.346 142.086 92.3879 141.182 84.9586 141.182" stroke="#FE654F" stroke-width="3" stroke-linecap="round"/>
<path d="M164.447 114.04C174.255 108.847 183.676 103.456 193.528 98.53" stroke="#FE654F" stroke-width="3" stroke-linecap="round"/>
<path d="M189.651 88.8362C193.642 88.8362 205.001 86.5733 206.669 91.2058C208.766 97.0302 202.873 99.5771 201.283 104.346" stroke="#FE654F" stroke-width="3" stroke-linecap="round"/>
<path d="M224.548 69.4488C224.548 62.7543 222.182 55.1622 229.503 53.8311C239.499 52.0136 241.997 53.0309 241.997 64.6019C241.997 72.6505 235.051 76.5516 234.242 83.02C233.489 89.0417 232.303 95.4541 232.303 102.407" stroke="#FE654F" stroke-width="3" stroke-linecap="round"/>
<path d="M230.365 119.856C230.365 126.659 234.671 124.917 232.303 123.734" stroke="#FE654F" stroke-width="3" stroke-linecap="round"/>
<defs>
<filter id="filter0_f_12_313" x="0.5" y="0.5" width="292.997" height="219.33" filterUnits="userSpaceOnUse" color-interpolation-filters="sRGB">
<feFlood flood-opacity="0" result="BackgroundImageFix"/>
<feBlend mode="normal" in="SourceGraphic" in2="BackgroundImageFix" result="shape"/>
<feGaussianBlur stdDeviation="25" result="effect1_foregroundBlur_12_313"/>
</filter>
</defs>
</svg>
