<svg width="158" height="161" viewBox="0 0 158 161" fill="none" xmlns="http://www.w3.org/2000/svg">
<g filter="url(#filter0_f_12_332)">
<path d="M59.9319 32.6724C58.4633 32.6724 33.6492 30.2066 32.8971 34.7189C32.0329 39.9039 32.7894 45.8313 32.7894 51.0905C32.7894 56.2605 32.7894 61.4305 32.7894 66.6005C32.7894 74.4656 55.4574 71.4473 45.3913 71.4473C42.7491 71.4473 32.9913 69.9544 32.7894 73.3861C32.4877 78.5155 32.7894 83.7565 32.7894 88.8961C32.7894 93.5951 31.0132 102.031 32.7894 106.345C34.4571 110.395 52.6945 108.284 57.9931 108.284" stroke="#F15BB5" stroke-width="3" stroke-linecap="round"/>
<path d="M73.5032 75.3248C74.146 85.6108 88.5848 93.8556 92.8906 102.467" stroke="#F15BB5" stroke-width="3" stroke-linecap="round"/>
<path d="M65.7482 114.1C65.7482 97.5609 80.204 83.7826 92.8906 75.3248" stroke="#F15BB5" stroke-width="3" stroke-linecap="round"/>
<path d="M110.339 71.4473C110.339 82.1974 113.077 94.9365 115.186 105.483C115.828 108.692 118.094 138.038 118.094 125.732" stroke="#F15BB5" stroke-width="3" stroke-linecap="round"/>
<path d="M110.339 75.3248C110.339 67.4344 118.745 59.6592 125.418 68.0007C127.149 70.1638 125.849 77.4392 125.849 80.1717C125.849 86.057 119.878 84.4759 116.156 86.9573" stroke="#F15BB5" stroke-width="3" stroke-linecap="round"/>
</g>
<path d="M59.9319 32.6724C58.4633 32.6724 33.6492 30.2066 32.8971 34.7189C32.0329 39.9039 32.7894 45.8313 32.7894 51.0905C32.7894 56.2605 32.7894 61.4305 32.7894 66.6005C32.7894 74.4656 55.4574 71.4473 45.3913 71.4473C42.7491 71.4473 32.9913 69.9544 32.7894 73.3861C32.4877 78.5155 32.7894 83.7565 32.7894 88.8961C32.7894 93.5951 31.0132 102.031 32.7894 106.345C34.4571 110.395 52.6945 108.284 57.9931 108.284" stroke="#F15BB5" stroke-width="3" stroke-linecap="round"/>
<path d="M73.5032 75.3248C74.146 85.6108 88.5848 93.8556 92.8906 102.467" stroke="#F15BB5" stroke-width="3" stroke-linecap="round"/>
<path d="M65.7482 114.1C65.7482 97.5609 80.204 83.7826 92.8906 75.3248" stroke="#F15BB5" stroke-width="3" stroke-linecap="round"/>
<path d="M110.339 71.4473C110.339 82.1974 113.077 94.9365 115.186 105.483C115.828 108.692 118.094 138.038 118.094 125.732" stroke="#F15BB5" stroke-width="3" stroke-linecap="round"/>
<path d="M110.339 75.3248C110.339 67.4344 118.745 59.6592 125.418 68.0007C127.149 70.1638 125.849 77.4392 125.849 80.1717C125.849 86.057 119.878 84.4759 116.156 86.9573" stroke="#F15BB5" stroke-width="3" stroke-linecap="round"/>
<defs>
<filter id="filter0_f_12_332" x="0.499268" y="0.5" width="157.318" height="159.73" filterUnits="userSpaceOnUse" color-interpolation-filters="sRGB">
<feFlood flood-opacity="0" result="BackgroundImageFix"/>
<feBlend mode="normal" in="SourceGraphic" in2="BackgroundImageFix" result="shape"/>
<feGaussianBlur stdDeviation="15" result="effect1_foregroundBlur_12_332"/>
</filter>
</defs>
</svg>
