<svg width="223" height="175" viewBox="0 0 223 175" fill="none" xmlns="http://www.w3.org/2000/svg">
<g filter="url(#filter0_f_12_325)">
<path d="M68.3626 32.1805C59.4629 32.1805 21.1603 29.1288 34.9731 48.1213C40.1668 55.2627 32.0286 82.5879 42.1895 82.5879C46.9927 82.5879 62.3014 82.5879 48.9751 82.5879C41.3799 82.5879 37.3427 80.7354 37.3427 89.3735C37.3427 97.4517 37.3427 105.53 37.3427 113.608C37.3427 120.519 34.8188 127.179 43.1589 127.179" stroke="#0A9396" stroke-width="3" stroke-linecap="round"/>
<path d="M79.9951 94.2205C68.6182 95.4846 67.5125 125.24 82.7955 125.24C97.6347 125.24 94.4445 96.1592 79.9951 96.1592" stroke="#0A9396" stroke-width="3" stroke-linecap="round"/>
<path d="M93.5664 98.0979C98.1906 103.3 100.887 124.432 101.321 117.485C101.84 109.187 99.0719 98.0979 111.015 98.0979" stroke="#0A9396" stroke-width="3" stroke-linecap="round"/>
<path d="M151.729 37.9967C131.544 37.9967 132.341 71.6654 132.341 86.0345C132.341 100.582 131.201 111.829 137.188 125.133C139.165 129.526 151.55 149.221 153.668 140.75" stroke="#0A9396" stroke-width="3" stroke-linecap="round"/>
<path d="M173.055 39.9355C173.462 36.683 185.281 53.9803 186.626 58.3536C190.475 70.8623 190.504 80.9548 190.504 94.2205C190.504 110.357 194.291 132.409 178.871 142.689" stroke="#0A9396" stroke-width="3" stroke-linecap="round"/>
</g>
<path d="M68.3626 32.1805C59.4629 32.1805 21.1603 29.1288 34.9731 48.1213C40.1668 55.2627 32.0286 82.5879 42.1895 82.5879C46.9927 82.5879 62.3014 82.5879 48.9751 82.5879C41.3799 82.5879 37.3427 80.7354 37.3427 89.3735C37.3427 97.4517 37.3427 105.53 37.3427 113.608C37.3427 120.519 34.8188 127.179 43.1589 127.179" stroke="#0A9396" stroke-width="3" stroke-linecap="round"/>
<path d="M79.9951 94.2205C68.6182 95.4846 67.5125 125.24 82.7955 125.24C97.6347 125.24 94.4445 96.1592 79.9951 96.1592" stroke="#0A9396" stroke-width="3" stroke-linecap="round"/>
<path d="M93.5664 98.0979C98.1906 103.3 100.887 124.432 101.321 117.485C101.84 109.187 99.0719 98.0979 111.015 98.0979" stroke="#0A9396" stroke-width="3" stroke-linecap="round"/>
<path d="M151.729 37.9967C131.544 37.9967 132.341 71.6654 132.341 86.0345C132.341 100.582 131.201 111.829 137.188 125.133C139.165 129.526 151.55 149.221 153.668 140.75" stroke="#0A9396" stroke-width="3" stroke-linecap="round"/>
<path d="M173.055 39.9355C173.462 36.683 185.281 53.9803 186.626 58.3536C190.475 70.8623 190.504 80.9548 190.504 94.2205C190.504 110.357 194.291 132.409 178.871 142.689" stroke="#0A9396" stroke-width="3" stroke-linecap="round"/>
<defs>
<filter id="filter0_f_12_325" x="0.500122" y="0.499878" width="221.913" height="173.844" filterUnits="userSpaceOnUse" color-interpolation-filters="sRGB">
<feFlood flood-opacity="0" result="BackgroundImageFix"/>
<feBlend mode="normal" in="SourceGraphic" in2="BackgroundImageFix" result="shape"/>
<feGaussianBlur stdDeviation="15" result="effect1_foregroundBlur_12_325"/>
</filter>
</defs>
</svg>
